<mxfile host="Electron" modified="2024-04-30T23:12:38.585Z" agent="Mozilla/5.0 (Windows NT 10.0; Win64; x64) AppleWebKit/537.36 (KHTML, like Gecko) draw.io/24.2.5 Chrome/120.0.6099.109 Electron/28.1.0 Safari/537.36" etag="XXyenRnYRQyy4WSu9kFI" version="24.2.5" type="device">
  <diagram name="Страница 1" id="LXEKsg3gmIdK38urKFfV">
    <mxGraphModel dx="1418" dy="828" grid="1" gridSize="10" guides="1" tooltips="1" connect="1" arrows="1" fold="1" page="1" pageScale="1" pageWidth="827" pageHeight="1169" math="0" shadow="0">
      <root>
        <mxCell id="0" />
        <mxCell id="1" parent="0" />
        <mxCell id="zI0INCIfrSsuR_QkGrka-1" value="&lt;font style=&quot;font-size: 16px;&quot; face=&quot;Times New Roman&quot;&gt;Выход makeOrder&lt;/font&gt;&lt;span style=&quot;background-color: initial; font-size: 16px; font-family: &amp;quot;Times New Roman&amp;quot;;&quot;&gt;(user, cart)&amp;nbsp;&lt;/span&gt;" style="rounded=1;whiteSpace=wrap;html=1;arcSize=50;" parent="1" vertex="1">
          <mxGeometry x="290" y="430" width="200" height="100" as="geometry" />
        </mxCell>
        <mxCell id="jFdbp1f1plJEr8HjpIfK-23" style="edgeStyle=orthogonalEdgeStyle;rounded=0;orthogonalLoop=1;jettySize=auto;html=1;exitX=0.5;exitY=1;exitDx=0;exitDy=0;endArrow=none;endFill=0;" parent="1" source="jFdbp1f1plJEr8HjpIfK-20" target="jFdbp1f1plJEr8HjpIfK-21" edge="1">
          <mxGeometry relative="1" as="geometry" />
        </mxCell>
        <mxCell id="jFdbp1f1plJEr8HjpIfK-20" value="&lt;span style=&quot;font-size: 16px;&quot;&gt;Обновить баланс пользователя в базе данных&lt;/span&gt;" style="rounded=0;whiteSpace=wrap;html=1;fontSize=14;fontFamily=Times New Roman;" parent="1" vertex="1">
          <mxGeometry x="290" y="190" width="200" height="100" as="geometry" />
        </mxCell>
        <mxCell id="jFdbp1f1plJEr8HjpIfK-24" style="edgeStyle=orthogonalEdgeStyle;rounded=0;orthogonalLoop=1;jettySize=auto;html=1;exitX=0.5;exitY=1;exitDx=0;exitDy=0;entryX=0.5;entryY=0;entryDx=0;entryDy=0;endArrow=none;endFill=0;" parent="1" source="jFdbp1f1plJEr8HjpIfK-21" target="zI0INCIfrSsuR_QkGrka-1" edge="1">
          <mxGeometry relative="1" as="geometry" />
        </mxCell>
        <mxCell id="jFdbp1f1plJEr8HjpIfK-21" value="&lt;span style=&quot;font-size: 16px;&quot;&gt;Вернуть страницу с информацией о пользователе и его заказах&lt;/span&gt;" style="rounded=0;whiteSpace=wrap;html=1;fontSize=14;fontFamily=Times New Roman;" parent="1" vertex="1">
          <mxGeometry x="290" y="310" width="200" height="100" as="geometry" />
        </mxCell>
        <mxCell id="7ODEaQsxrJoL31AT0aq_-8" style="edgeStyle=orthogonalEdgeStyle;rounded=0;orthogonalLoop=1;jettySize=auto;html=1;exitX=0.5;exitY=1;exitDx=0;exitDy=0;entryX=0.5;entryY=0;entryDx=0;entryDy=0;endArrow=none;endFill=0;" edge="1" parent="1" source="7ODEaQsxrJoL31AT0aq_-1" target="jFdbp1f1plJEr8HjpIfK-20">
          <mxGeometry relative="1" as="geometry" />
        </mxCell>
        <mxCell id="7ODEaQsxrJoL31AT0aq_-1" value="&lt;font style=&quot;font-size: 16px;&quot; face=&quot;Times New Roman&quot;&gt;1&lt;/font&gt;" style="ellipse;whiteSpace=wrap;html=1;aspect=fixed;" vertex="1" parent="1">
          <mxGeometry x="364" y="120" width="50" height="50" as="geometry" />
        </mxCell>
        <mxCell id="7ODEaQsxrJoL31AT0aq_-2" value="" style="endArrow=none;dashed=1;html=1;rounded=0;" edge="1" parent="1">
          <mxGeometry width="50" height="50" relative="1" as="geometry">
            <mxPoint x="345" y="144.5" as="sourcePoint" />
            <mxPoint x="364" y="144.5" as="targetPoint" />
          </mxGeometry>
        </mxCell>
        <mxCell id="7ODEaQsxrJoL31AT0aq_-3" value="&lt;font face=&quot;Times New Roman&quot; style=&quot;font-size: 16px;&quot;&gt;Из стр. 16&lt;/font&gt;" style="text;html=1;strokeColor=none;fillColor=none;align=center;verticalAlign=middle;whiteSpace=wrap;rounded=0;fontFamily=Times New Roman;" vertex="1" parent="1">
          <mxGeometry x="274" y="120" width="70" height="50" as="geometry" />
        </mxCell>
        <mxCell id="7ODEaQsxrJoL31AT0aq_-4" value="" style="group;flipH=1;" vertex="1" connectable="0" parent="1">
          <mxGeometry x="334" y="120" width="10" height="50" as="geometry" />
        </mxCell>
        <mxCell id="7ODEaQsxrJoL31AT0aq_-5" value="" style="endArrow=none;html=1;rounded=0;" edge="1" parent="7ODEaQsxrJoL31AT0aq_-4">
          <mxGeometry width="50" height="50" relative="1" as="geometry">
            <mxPoint x="10" y="50" as="sourcePoint" />
            <mxPoint x="10" as="targetPoint" />
          </mxGeometry>
        </mxCell>
        <mxCell id="7ODEaQsxrJoL31AT0aq_-6" value="" style="endArrow=none;html=1;rounded=0;" edge="1" parent="7ODEaQsxrJoL31AT0aq_-4">
          <mxGeometry width="50" height="50" relative="1" as="geometry">
            <mxPoint x="10" as="sourcePoint" />
            <mxPoint as="targetPoint" />
          </mxGeometry>
        </mxCell>
        <mxCell id="7ODEaQsxrJoL31AT0aq_-7" value="" style="endArrow=none;html=1;rounded=0;" edge="1" parent="7ODEaQsxrJoL31AT0aq_-4">
          <mxGeometry width="50" height="50" relative="1" as="geometry">
            <mxPoint x="10" y="50" as="sourcePoint" />
            <mxPoint y="50" as="targetPoint" />
          </mxGeometry>
        </mxCell>
        <mxCell id="7ODEaQsxrJoL31AT0aq_-22" style="edgeStyle=orthogonalEdgeStyle;rounded=0;orthogonalLoop=1;jettySize=auto;html=1;exitX=0;exitY=0.5;exitDx=0;exitDy=0;endArrow=open;endFill=0;" edge="1" parent="1" source="7ODEaQsxrJoL31AT0aq_-16">
          <mxGeometry relative="1" as="geometry">
            <mxPoint x="390" y="420" as="targetPoint" />
            <Array as="points">
              <mxPoint x="510" y="420" />
            </Array>
          </mxGeometry>
        </mxCell>
        <mxCell id="7ODEaQsxrJoL31AT0aq_-16" value="&lt;font style=&quot;font-size: 16px;&quot; face=&quot;Times New Roman&quot;&gt;2&lt;/font&gt;" style="ellipse;whiteSpace=wrap;html=1;aspect=fixed;" vertex="1" parent="1">
          <mxGeometry x="530" y="395" width="50" height="50" as="geometry" />
        </mxCell>
        <mxCell id="7ODEaQsxrJoL31AT0aq_-17" value="" style="endArrow=none;dashed=1;html=1;rounded=0;" edge="1" parent="1">
          <mxGeometry width="50" height="50" relative="1" as="geometry">
            <mxPoint x="582" y="424" as="sourcePoint" />
            <mxPoint x="601" y="424" as="targetPoint" />
          </mxGeometry>
        </mxCell>
        <mxCell id="7ODEaQsxrJoL31AT0aq_-18" value="" style="endArrow=none;html=1;rounded=0;" edge="1" parent="1">
          <mxGeometry width="50" height="50" relative="1" as="geometry">
            <mxPoint x="601" y="450" as="sourcePoint" />
            <mxPoint x="601" y="400" as="targetPoint" />
          </mxGeometry>
        </mxCell>
        <mxCell id="7ODEaQsxrJoL31AT0aq_-19" value="" style="endArrow=none;html=1;rounded=0;" edge="1" parent="1">
          <mxGeometry width="50" height="50" relative="1" as="geometry">
            <mxPoint x="601" y="400" as="sourcePoint" />
            <mxPoint x="611" y="400" as="targetPoint" />
          </mxGeometry>
        </mxCell>
        <mxCell id="7ODEaQsxrJoL31AT0aq_-20" value="" style="endArrow=none;html=1;rounded=0;" edge="1" parent="1">
          <mxGeometry width="50" height="50" relative="1" as="geometry">
            <mxPoint x="601" y="450" as="sourcePoint" />
            <mxPoint x="611" y="450" as="targetPoint" />
          </mxGeometry>
        </mxCell>
        <mxCell id="7ODEaQsxrJoL31AT0aq_-21" value="&lt;font face=&quot;Times New Roman&quot; style=&quot;font-size: 16px;&quot;&gt;Из стр. 16&lt;/font&gt;" style="text;html=1;strokeColor=none;fillColor=none;align=center;verticalAlign=middle;whiteSpace=wrap;rounded=0;" vertex="1" parent="1">
          <mxGeometry x="601" y="400" width="70" height="50" as="geometry" />
        </mxCell>
      </root>
    </mxGraphModel>
  </diagram>
</mxfile>
